<svg width="34" height="25" viewBox="0 0 34 25" fill="none" xmlns="http://www.w3.org/2000/svg">
<path d="M9.39301 21.117C9.76501 21.117 10.261 21.0653 10.881 20.962V24.062C10.0957 24.186 9.32068 24.248 8.55601 24.248C6.92334 24.248 5.63168 23.8243 4.68101 22.977C3.73034 22.1297 3.26534 20.838 3.28601 19.102L3.31701 11.104H0.372009V8.097H3.31701L3.34801 2.703H6.85101L6.82001 8.097H10.85V11.104H6.78901L6.75801 18.389C6.75801 20.2077 7.63634 21.117 9.39301 21.117Z" fill="#FC6435"/>
<path d="M12.8628 1.06C13.2968 0.625997 13.8135 0.408997 14.4128 0.408997C15.0122 0.408997 15.5288 0.625997 15.9628 1.06C16.3968 1.47333 16.6138 1.97966 16.6138 2.579C16.6138 3.17833 16.3968 3.695 15.9628 4.129C15.5288 4.54233 15.0122 4.749 14.4128 4.749C13.8135 4.749 13.2968 4.54233 12.8628 4.129C12.4495 3.695 12.2428 3.17833 12.2428 2.579C12.2428 1.97966 12.4495 1.47333 12.8628 1.06ZM16.1488 24H12.6768V8.097H16.1488V24Z" fill="#FC6435"/>
<path d="M27.9107 15.909L33.2117 24H29.0577L25.3687 18.296L21.6487 24H17.5877L22.7337 15.847L17.7117 8.097H21.8347L25.3687 13.553L28.8407 8.097H32.9637L27.9107 15.909Z" fill="#FC6435"/>
</svg>
